<svg version="1.1" xmlns="http://www.w3.org/2000/svg" xmlns:xlink="http://www.w3.org/1999/xlink" width="766.55712890625" height="822"><defs/><g><g transform="translate(-22,-54) scale(1,1)"><rect fill="#ffffff" stroke="none" x="160" y="64" width="431" height="200"/></g><g transform="translate(-22,-54) scale(1,1)"><path fill="none" stroke="#000000" d="M 160 64 L 591 64 L 591 264 L 160 264 L 160 64 Z Z" stroke-miterlimit="10"/></g><g transform="translate(-22,-54) scale(1,1)"><path fill="#C0C0C0" stroke="none" d="M 249 167 L 288 167 Q 298 167 298 177 L 298 196 Q 298 206 288 206 L 249 206 Q 239 206 239 196 L 239 177 Q 239 167 249 167 Z" opacity="0.2"/></g><g transform="translate(-22,-54) scale(1,1)"><path fill="#ffffff" stroke="none" d="M 242 160 L 281 160 Q 291 160 291 170 L 291 189 Q 291 199 281 199 L 242 199 Q 232 199 232 189 L 232 170 Q 232 160 242 160 Z"/></g><g transform="translate(-22,-54) scale(1,1)"><path fill="none" stroke="#000000" d="M 242 160 L 281 160 Q 291 160 291 170 L 291 189 Q 291 199 281 199 L 242 199 Q 232 199 232 189 L 232 170 Q 232 160 242 160 Z" stroke-miterlimit="10"/></g><g transform="translate(-22,-54) scale(1,1)"><g><path fill="none" stroke="none"/><text fill="#000000" stroke="none" font-family="Arial" font-size="13px" font-style="normal" font-weight="bold" text-decoration="none" x="247.7763671875" y="179.5">DM0</text></g></g><g transform="translate(-22,-54) scale(1,1)"><path fill="#C0C0C0" stroke="none" d="M 465 167 L 504 167 Q 514 167 514 177 L 514 196 Q 514 206 504 206 L 465 206 Q 455 206 455 196 L 455 177 Q 455 167 465 167 Z" opacity="0.2"/></g><g transform="translate(-22,-54) scale(1,1)"><path fill="#ffffff" stroke="none" d="M 458 160 L 497 160 Q 507 160 507 170 L 507 189 Q 507 199 497 199 L 458 199 Q 448 199 448 189 L 448 170 Q 448 160 458 160 Z"/></g><g transform="translate(-22,-54) scale(1,1)"><path fill="none" stroke="#000000" d="M 458 160 L 497 160 Q 507 160 507 170 L 507 189 Q 507 199 497 199 L 458 199 Q 448 199 448 189 L 448 170 Q 448 160 458 160 Z" stroke-miterlimit="10"/></g><g transform="translate(-22,-54) scale(1,1)"><g><path fill="none" stroke="none"/><text fill="#000000" stroke="none" font-family="Arial" font-size="13px" font-style="normal" font-weight="bold" text-decoration="none" x="463.7763671875" y="179.5">DM1</text></g></g><g transform="translate(-22,-54) scale(1,1)"><path fill="none" stroke="#000000" d="M 291 176 L 448 176" stroke-miterlimit="10"/></g><g transform="translate(-22,-54) scale(1,1)"><path fill="none" stroke="#000000" d="M 437.83732514237585 180.209517756016 L 448 176 L 437.83732514237585 171.790482243984" stroke-miterlimit="10"/></g><g transform="translate(-22,-54) scale(1,1)"><g><path fill="none" stroke="none"/><text fill="#000000" stroke="none" font-family="Arial" font-size="13px" font-style="normal" font-weight="normal" text-decoration="none" x="362" y="168">P9</text></g></g><g transform="translate(-22,-54) scale(1,1)"><path fill="none" stroke="#000000" d="M 448 192 L 291 192" stroke-miterlimit="10"/></g><g transform="translate(-22,-54) scale(1,1)"><path fill="none" stroke="#000000" d="M 301.16267485762415 187.790482243984 L 291 192 L 301.16267485762415 196.209517756016" stroke-miterlimit="10"/></g><g transform="translate(-22,-54) scale(1,1)"><g><path fill="none" stroke="none"/><text fill="#000000" stroke="none" font-family="Arial" font-size="13px" font-style="normal" font-weight="normal" text-decoration="none" x="359" y="214">!P9</text></g></g><g transform="translate(-22,-54) scale(1,1)"><path fill="none" stroke="#000000" d="M 261 160 L 261 140 L 208 140 L 208 179 L 232 179" stroke-miterlimit="10"/></g><g transform="translate(-22,-54) scale(1,1)"><path fill="none" stroke="#000000" d="M 221.83732514237585 183.209517756016 L 232 179 L 221.83732514237585 174.790482243984" stroke-miterlimit="10"/></g><g transform="translate(-22,-54) scale(1,1)"><g><path fill="none" stroke="none"/><text fill="#000000" stroke="none" font-family="Arial" font-size="13px" font-style="normal" font-weight="normal" text-decoration="none" x="224" y="133">!P9</text></g></g><g transform="translate(-22,-54) scale(1,1)"><path fill="none" stroke="#000000" d="M 477 160 L 477 140 L 536 140 L 536 179 L 507 179" stroke-miterlimit="10"/></g><g transform="translate(-22,-54) scale(1,1)"><path fill="none" stroke="#000000" d="M 517.1626748576241 174.790482243984 L 507 179 L 517.1626748576241 183.209517756016" stroke-miterlimit="10"/></g><g transform="translate(-22,-54) scale(1,1)"><g><path fill="none" stroke="none"/><text fill="#000000" stroke="none" font-family="Arial" font-size="13px" font-style="normal" font-weight="normal" text-decoration="none" x="496" y="132">P9</text></g></g><g transform="translate(-22,-54) scale(1,1)"><g><path fill="none" stroke="none"/><text fill="#000000" stroke="none" font-family="Arial" font-size="13px" font-style="normal" font-weight="normal" text-decoration="none" x="221" y="218">motion = false</text></g></g><g transform="translate(-22,-54) scale(1,1)"><g><path fill="none" stroke="none"/><text fill="#000000" stroke="none" font-family="Arial" font-size="13px" font-style="normal" font-weight="normal" text-decoration="none" x="437" y="218">motion = true</text></g></g><g transform="translate(-22,-54) scale(1,1)"><g><path fill="none" stroke="none"/><text fill="#000000" stroke="none" font-family="Arial" font-size="13px" font-style="normal" font-weight="normal" text-decoration="none" x="189" y="90">Detect Motion</text></g></g><g transform="translate(-22,-54) scale(1,1)"><rect fill="#ffffff" stroke="none" x="128" y="496" width="592" height="256"/></g><g transform="translate(-22,-54) scale(1,1)"><path fill="none" stroke="#000000" d="M 128 496 L 720 496 L 720 752 L 128 752 L 128 496 Z Z" stroke-miterlimit="10"/></g><g transform="translate(-22,-54) scale(1,1)"><g><path fill="none" stroke="none"/><text fill="#000000" stroke="none" font-family="Arial" font-size="13px" font-style="normal" font-weight="normal" text-decoration="none" x="157" y="514">Illuminate L1</text></g></g><g transform="translate(-22,-54) scale(1,1)"><path fill="#C0C0C0" stroke="none" d="M 201 599 L 256.47265625 599 Q 266.47265625 599 266.47265625 609 L 266.47265625 636 Q 266.47265625 646 256.47265625 646 L 201 646 Q 191 646 191 636 L 191 609 Q 191 599 201 599 Z" opacity="0.2"/></g><g transform="translate(-22,-54) scale(1,1)"><path fill="#ffffff" stroke="none" d="M 194 592 L 249.47265625 592 Q 259.47265625 592 259.47265625 602 L 259.47265625 629 Q 259.47265625 639 249.47265625 639 L 194 639 Q 184 639 184 629 L 184 602 Q 184 592 194 592 Z"/></g><g transform="translate(-22,-54) scale(1,1)"><path fill="none" stroke="#000000" d="M 194 592 L 249.47265625 592 Q 259.47265625 592 259.47265625 602 L 259.47265625 629 Q 259.47265625 639 249.47265625 639 L 194 639 Q 184 639 184 629 L 184 602 Q 184 592 194 592 Z" stroke-miterlimit="10"/></g><g transform="translate(-22,-54) scale(1,1)"><g><path fill="none" stroke="none"/><text fill="#000000" stroke="none" font-family="Arial" font-size="13px" font-style="normal" font-weight="bold" text-decoration="none" x="212.700439453125" y="611.5">IL0</text></g></g><g transform="translate(-22,-54) scale(1,1)"><path fill="#C0C0C0" stroke="none" d="M 385 599 L 424 599 Q 434 599 434 609 L 434 628 Q 434 638 424 638 L 385 638 Q 375 638 375 628 L 375 609 Q 375 599 385 599 Z" opacity="0.2"/></g><g transform="translate(-22,-54) scale(1,1)"><path fill="#ffffff" stroke="none" d="M 378 592 L 417 592 Q 427 592 427 602 L 427 621 Q 427 631 417 631 L 378 631 Q 368 631 368 621 L 368 602 Q 368 592 378 592 Z"/></g><g transform="translate(-22,-54) scale(1,1)"><path fill="none" stroke="#000000" d="M 378 592 L 417 592 Q 427 592 427 602 L 427 621 Q 427 631 417 631 L 378 631 Q 368 631 368 621 L 368 602 Q 368 592 378 592 Z" stroke-miterlimit="10"/></g><g transform="translate(-22,-54) scale(1,1)"><g><path fill="none" stroke="none"/><text fill="#000000" stroke="none" font-family="Arial" font-size="13px" font-style="normal" font-weight="bold" text-decoration="none" x="383.7763671875" y="611.5">DM1</text></g></g><g transform="translate(-22,-54) scale(1,1)"><path fill="#C0C0C0" stroke="none" d="M 545 591 L 584 591 Q 594 591 594 601 L 594 620 Q 594 630 584 630 L 545 630 Q 535 630 535 620 L 535 601 Q 535 591 545 591 Z" opacity="0.2"/></g><g transform="translate(-22,-54) scale(1,1)"><path fill="#ffffff" stroke="none" d="M 538 584 L 577 584 Q 587 584 587 594 L 587 613 Q 587 623 577 623 L 538 623 Q 528 623 528 613 L 528 594 Q 528 584 538 584 Z"/></g><g transform="translate(-22,-54) scale(1,1)"><path fill="none" stroke="#000000" d="M 538 584 L 577 584 Q 587 584 587 594 L 587 613 Q 587 623 577 623 L 538 623 Q 528 623 528 613 L 528 594 Q 528 584 538 584 Z" stroke-miterlimit="10"/></g><g transform="translate(-22,-54) scale(1,1)"><g><path fill="none" stroke="none"/><text fill="#000000" stroke="none" font-family="Arial" font-size="13px" font-style="normal" font-weight="bold" text-decoration="none" x="543.7763671875" y="603.5">DM0</text></g></g><g transform="translate(-22,-54) scale(1,1)"><path fill="none" stroke="#000000" d="M 260 614 L 367 612" stroke-miterlimit="10"/></g><g transform="translate(-22,-54) scale(1,1)"><path fill="none" stroke="#000000" d="M 356.9177688056863 616.3987059624858 L 367 612 L 356.76043113849084 607.9811407675296" stroke-miterlimit="10"/></g><g transform="translate(-22,-54) scale(1,1)"><g><path fill="none" stroke="none"/><text fill="#000000" stroke="none" font-family="Arial" font-size="13px" font-style="normal" font-weight="normal" text-decoration="none" x="286" y="605">presence</text></g></g><g transform="translate(-22,-54) scale(1,1)"><path fill="none" stroke="#000000" d="M 528 616 L 427 616" stroke-miterlimit="10"/></g><g transform="translate(-22,-54) scale(1,1)"><path fill="none" stroke="#000000" d="M 437.16267485762415 611.790482243984 L 427 616 L 437.16267485762415 620.209517756016" stroke-miterlimit="10"/></g><g transform="translate(-22,-54) scale(1,1)"><g><path fill="none" stroke="none"/><text fill="#000000" stroke="none" font-family="Arial" font-size="13px" font-style="normal" font-weight="normal" text-decoration="none" x="456" y="636">presence</text></g></g><g transform="translate(-22,-54) scale(1,1)"><path fill="none" stroke="#000000" d="M 557 584 L 557 564 L 616 564 L 616 603 L 587 603" stroke-miterlimit="10"/></g><g transform="translate(-22,-54) scale(1,1)"><path fill="none" stroke="#000000" d="M 597.1626748576241 598.790482243984 L 587 603 L 597.1626748576241 607.209517756016" stroke-miterlimit="10"/></g><g transform="translate(-22,-54) scale(1,1)"><path fill="none" stroke="#000000" d="M 213 592 L 213 572 L 168 572 L 168 611 L 184 611" stroke-miterlimit="10"/></g><g transform="translate(-22,-54) scale(1,1)"><path fill="none" stroke="#000000" d="M 173.83732514237585 615.209517756016 L 184 611 L 173.83732514237585 606.790482243984" stroke-miterlimit="10"/></g><g transform="translate(-22,-54) scale(1,1)"><g><path fill="none" stroke="none"/><text fill="#000000" stroke="none" font-family="Arial" font-size="13px" font-style="normal" font-weight="normal" text-decoration="none" x="160" y="565">!presence</text></g></g><g transform="translate(-22,-54) scale(1,1)"><path fill="none" stroke="#000000" d="M 397 592 L 397 572 L 352 572 L 352 600 L 368 600" stroke-miterlimit="10"/></g><g transform="translate(-22,-54) scale(1,1)"><path fill="none" stroke="#000000" d="M 357.83732514237585 604.209517756016 L 368 600 L 357.83732514237585 595.790482243984" stroke-miterlimit="10"/></g><g transform="translate(-22,-54) scale(1,1)"><g><path fill="none" stroke="none"/><text fill="#000000" stroke="none" font-family="Arial" font-size="13px" font-style="normal" font-weight="normal" text-decoration="none" x="345" y="565">presence</text></g></g><g transform="translate(-22,-54) scale(1,1)"><path fill="none" stroke="#000000" d="M 536 623 L 536 704 L 248 704 L 248 639" stroke-miterlimit="10"/></g><g transform="translate(-22,-54) scale(1,1)"><path fill="none" stroke="#000000" d="M 252.209517756016 649.1626748576241 L 248 639 L 243.790482243984 649.1626748576241" stroke-miterlimit="10"/></g><g transform="translate(-22,-54) scale(1,1)"><g><path fill="none" stroke="none"/><text fill="#000000" stroke="none" font-family="Arial" font-size="13px" font-style="normal" font-weight="normal" text-decoration="none" x="373" y="650">P4 = 1</text></g></g><g transform="translate(-22,-54) scale(1,1)"><g><path fill="none" stroke="none"/><text fill="#000000" stroke="none" font-family="Arial" font-size="13px" font-style="normal" font-weight="normal" text-decoration="none" x="189" y="658">P4 = 0</text></g></g><g transform="translate(-22,-54) scale(1,1)"><g><path fill="none" stroke="none"/><text fill="#000000" stroke="none" font-family="Arial" font-size="13px" font-style="normal" font-weight="normal" text-decoration="none" x="533" y="554">!presence &amp;&amp; !10secons</text></g></g><g transform="translate(-22,-54) scale(1,1)"><g><path fill="none" stroke="none"/><text fill="#000000" stroke="none" font-family="Arial" font-size="13px" font-style="normal" font-weight="normal" text-decoration="none" x="541" y="642">conta i secondi</text><text fill="#000000" stroke="none" font-family="Arial" font-size="13px" font-style="normal" font-weight="normal" text-decoration="none" x="541" y="655">passati</text></g></g><g transform="translate(-22,-54) scale(1,1)"><g><path fill="none" stroke="none"/><text fill="#000000" stroke="none" font-family="Arial" font-size="13px" font-style="normal" font-weight="normal" text-decoration="none" x="245" y="722">!motion &amp;&amp; after 10 secons</text></g></g><g transform="translate(-22,-54) scale(1,1)"><path fill="#C0C0C0" stroke="none" d="M 47 200.5 C 47 195.2532944 51.2532944 191 56.5 191 C 61.7467056 191 66 195.2532944 66 200.5 C 66 205.7467056 61.7467056 210 56.5 210 C 51.2532944 210 47 205.7467056 47 200.5 Z" opacity="0.2"/></g><g transform="translate(-22,-54) scale(1,1)"><path fill="#000000" stroke="none" d="M 40 193.5 C 40 188.2532944 44.2532944 184 49.5 184 C 54.7467056 184 59 188.2532944 59 193.5 C 59 198.7467056 54.7467056 203 49.5 203 C 44.2532944 203 40 198.7467056 40 193.5 Z"/></g><g transform="translate(-22,-54) scale(1,1)"><path fill="none" stroke="#000000" d="M 59 192 L 232 192" stroke-miterlimit="10"/></g><g transform="translate(-22,-54) scale(1,1)"><path fill="none" stroke="#000000" d="M 221.83732514237585 196.209517756016 L 232 192 L 221.83732514237585 187.790482243984" stroke-miterlimit="10"/></g><g transform="translate(-22,-54) scale(1,1)"><g><path fill="none" stroke="none"/><text fill="#000000" stroke="none" font-family="Arial" font-size="13px" font-style="normal" font-weight="normal" text-decoration="none" x="87" y="183">Sensor: P9</text></g></g><g transform="translate(-22,-54) scale(1,1)"><path fill="#C0C0C0" stroke="none" d="M 297 367 L 464.84521484375 367 Q 474.84521484375 367 474.84521484375 377 L 474.84521484375 396 Q 474.84521484375 406 464.84521484375 406 L 297 406 Q 287 406 287 396 L 287 377 Q 287 367 297 367 Z" opacity="0.2"/></g><g transform="translate(-22,-54) scale(1,1)"><path fill="#ffffff" stroke="none" d="M 290 360 L 457.84521484375 360 Q 467.84521484375 360 467.84521484375 370 L 467.84521484375 389 Q 467.84521484375 399 457.84521484375 399 L 290 399 Q 280 399 280 389 L 280 370 Q 280 360 290 360 Z"/></g><g transform="translate(-22,-54) scale(1,1)"><path fill="none" stroke="#000000" d="M 290 360 L 457.84521484375 360 Q 467.84521484375 360 467.84521484375 370 L 467.84521484375 389 Q 467.84521484375 399 457.84521484375 399 L 290 399 Q 280 399 280 389 L 280 370 Q 280 360 290 360 Z" stroke-miterlimit="10"/></g><g transform="translate(-22,-54) scale(1,1)"><g><path fill="none" stroke="none"/><text fill="#000000" stroke="none" font-family="Arial" font-size="13px" font-style="normal" font-weight="bold" text-decoration="none" x="289.4384765625" y="379.5">presence = motion || nearWC</text></g></g><g transform="translate(-22,-54) scale(1,1)"><path fill="#C0C0C0" stroke="none" d="M 367 272.5 C 367 267.2532944 371.2532944 263 376.5 263 C 381.7467056 263 386 267.2532944 386 272.5 C 386 277.7467056 381.7467056 282 376.5 282 C 371.2532944 282 367 277.7467056 367 272.5 Z" opacity="0.2"/></g><g transform="translate(-22,-54) scale(1,1)"><path fill="#000000" stroke="none" d="M 360 265.5 C 360 260.2532944 364.2532944 256 369.5 256 C 374.7467056 256 379 260.2532944 379 265.5 C 379 270.7467056 374.7467056 275 369.5 275 C 364.2532944 275 360 270.7467056 360 265.5 Z"/></g><g transform="translate(-22,-54) scale(1,1)"><path fill="none" stroke="#000000" d="M 369 276 L 372 359" stroke-miterlimit="10"/></g><g transform="translate(-22,-54) scale(1,1)"><path fill="none" stroke="#000000" d="M 367.42614338453484 348.9960090133404 L 372 359 L 375.8396848366257 348.69190510543353" stroke-miterlimit="10"/></g><g transform="translate(-22,-54) scale(1,1)"><g><path fill="none" stroke="none"/><text fill="#000000" stroke="none" font-family="Arial" font-size="13px" font-style="normal" font-weight="normal" text-decoration="none" x="375" y="325">motion</text></g></g><g transform="translate(-22,-54) scale(1,1)"><path fill="#C0C0C0" stroke="none" d="M 375 504.5 C 375 499.2532944 379.2532944 495 384.5 495 C 389.7467056 495 394 499.2532944 394 504.5 C 394 509.7467056 389.7467056 514 384.5 514 C 379.2532944 514 375 509.7467056 375 504.5 Z" opacity="0.2"/></g><g transform="translate(-22,-54) scale(1,1)"><path fill="#000000" stroke="none" d="M 368 497.5 C 368 492.2532944 372.2532944 488 377.5 488 C 382.7467056 488 387 492.2532944 387 497.5 C 387 502.7467056 382.7467056 507 377.5 507 C 372.2532944 507 368 502.7467056 368 497.5 Z"/></g><g transform="translate(-22,-54) scale(1,1)"><path fill="none" stroke="#000000" d="M 374 400 L 377 487" stroke-miterlimit="10"/></g><g transform="translate(-22,-54) scale(1,1)"><path fill="none" stroke="#000000" d="M 372.44275379603874 476.98843133987083 L 377 487 L 380.8567883955344 476.69829221575026" stroke-miterlimit="10"/></g><g transform="translate(-22,-54) scale(1,1)"><path fill="#ffffff" stroke="none" d="M 32 288 L 285 288 L 295 298 L 295 351 L 32 351 L 32 288"/></g><g transform="translate(-22,-54) scale(1,1)"><path fill="none" stroke="#000000" d="M 32 288 L 285 288 L 295 298 L 295 351 L 32 351 L 32 288 L 32 288" stroke-miterlimit="10"/></g><g transform="translate(-22,-54) scale(1,1)"><path fill="none" stroke="#000000" d="M 285 288 L 285 298 L 295 298 L 285 288" stroke-miterlimit="10"/></g><g transform="translate(-22,-54) scale(1,1)"><g><path fill="none" stroke="none"/><text fill="#000000" stroke="none" font-family="Arial" font-size="13px" font-style="normal" font-weight="normal" text-decoration="none" x="37" y="306">presence è un metodo della classe globale</text><text fill="#000000" stroke="none" font-family="Arial" font-size="13px" font-style="normal" font-weight="normal" text-decoration="none" x="37" y="319">che si setta a vero se il pir rileva la</text><text fill="#000000" stroke="none" font-family="Arial" font-size="13px" font-style="normal" font-weight="normal" text-decoration="none" x="37" y="332">presenza dell'utente o quest'ultimo è vicino</text><text fill="#000000" stroke="none" font-family="Arial" font-size="13px" font-style="normal" font-weight="normal" text-decoration="none" x="37" y="345">al water.</text></g></g><g transform="translate(-22,-54) scale(1,1)"><path fill="#ffffff" stroke="none" d="M 512 408 L 765 408 L 775 418 L 775 471 L 512 471 L 512 408"/></g><g transform="translate(-22,-54) scale(1,1)"><path fill="none" stroke="#000000" d="M 512 408 L 765 408 L 775 418 L 775 471 L 512 471 L 512 408 L 512 408" stroke-miterlimit="10"/></g><g transform="translate(-22,-54) scale(1,1)"><path fill="none" stroke="#000000" d="M 765 408 L 765 418 L 775 418 L 765 408" stroke-miterlimit="10"/></g><g transform="translate(-22,-54) scale(1,1)"><g><path fill="none" stroke="none"/><text fill="#000000" stroke="none" font-family="Arial" font-size="13px" font-style="normal" font-weight="normal" text-decoration="none" x="517" y="426">nearWC viene utilizzato in</text><text fill="#000000" stroke="none" font-family="Arial" font-size="13px" font-style="normal" font-weight="normal" text-decoration="none" x="517" y="439">DetectPresenceTask ed è true quando</text><text fill="#000000" stroke="none" font-family="Arial" font-size="13px" font-style="normal" font-weight="normal" text-decoration="none" x="517" y="452">l'utente è entro una distanza Dmax dal</text><text fill="#000000" stroke="none" font-family="Arial" font-size="13px" font-style="normal" font-weight="normal" text-decoration="none" x="517" y="465">water</text></g></g><g transform="translate(-22,-54) scale(1,1)"><path fill="#C0C0C0" stroke="none" d="M 689 343 L 775.55712890625 343 Q 785.55712890625 343 785.55712890625 353 L 785.55712890625 372 Q 785.55712890625 382 775.55712890625 382 L 689 382 Q 679 382 679 372 L 679 353 Q 679 343 689 343 Z" opacity="0.2"/></g><g transform="translate(-22,-54) scale(1,1)"><path fill="#ffffff" stroke="none" d="M 682 336 L 768.55712890625 336 Q 778.55712890625 336 778.55712890625 346 L 778.55712890625 365 Q 778.55712890625 375 768.55712890625 375 L 682 375 Q 672 375 672 365 L 672 346 Q 672 336 682 336 Z"/></g><g transform="translate(-22,-54) scale(1,1)"><path fill="none" stroke="#000000" d="M 682 336 L 768.55712890625 336 Q 778.55712890625 336 778.55712890625 346 L 778.55712890625 365 Q 778.55712890625 375 768.55712890625 375 L 682 375 Q 672 375 672 365 L 672 346 Q 672 336 682 336 Z" stroke-miterlimit="10"/></g><g transform="translate(-22,-54) scale(1,1)"><g><path fill="none" stroke="none"/><text fill="#000000" stroke="none" font-family="Arial" font-size="13px" font-style="normal" font-weight="bold" text-decoration="none" x="679.03271484375" y="355.5">DetectPresence</text></g></g><g transform="translate(-22,-54) scale(1,1)"><path fill="none" stroke="#000000" d="M 671 359 L 469 372" stroke-miterlimit="10"/></g><g transform="translate(-22,-54) scale(1,1)"><path fill="none" stroke="#000000" d="M 478.87134409839933 367.14648934368154 L 469 372 L 479.4120446490479 375.54814405376" stroke-miterlimit="10"/></g><g transform="translate(-22,-54) scale(1,1)"><g><path fill="none" stroke="none"/><text fill="#000000" stroke="none" font-family="Arial" font-size="13px" font-style="normal" font-weight="normal" text-decoration="none" x="552" y="357">nearWC</text></g></g><g transform="translate(-22,-54) scale(1,1)"><path fill="none" stroke="#000000" d="M 427 600 L 528 600" stroke-miterlimit="10"/></g><g transform="translate(-22,-54) scale(1,1)"><path fill="none" stroke="#000000" d="M 517.8373251423759 604.209517756016 L 528 600 L 517.8373251423758 595.790482243984" stroke-miterlimit="10"/></g><g transform="translate(-22,-54) scale(1,1)"><g><path fill="none" stroke="none"/><text fill="#000000" stroke="none" font-family="Arial" font-size="13px" font-style="normal" font-weight="normal" text-decoration="none" x="449" y="592">!presence</text></g></g><g transform="translate(-22,-54) scale(1,1)"><path fill="#ffffff" stroke="none" d="M 560 672 L 757 672 L 767 682 L 767 775 L 560 775 L 560 672"/></g><g transform="translate(-22,-54) scale(1,1)"><path fill="none" stroke="#000000" d="M 560 672 L 757 672 L 767 682 L 767 775 L 560 775 L 560 672 L 560 672" stroke-miterlimit="10"/></g><g transform="translate(-22,-54) scale(1,1)"><path fill="none" stroke="#000000" d="M 757 672 L 757 682 L 767 682 L 757 672" stroke-miterlimit="10"/></g><g transform="translate(-22,-54) scale(1,1)"><g><path fill="none" stroke="none"/><text fill="#000000" stroke="none" font-family="Arial" font-size="13px" font-style="normal" font-weight="normal" text-decoration="none" x="565" y="690">incomincia a contare i 10 secondi</text><text fill="#000000" stroke="none" font-family="Arial" font-size="13px" font-style="normal" font-weight="normal" text-decoration="none" x="565" y="703">solo quando non viene più rilevata</text><text fill="#000000" stroke="none" font-family="Arial" font-size="13px" font-style="normal" font-weight="normal" text-decoration="none" x="565" y="716">la presenza dell'utente. Il</text><text fill="#000000" stroke="none" font-family="Arial" font-size="13px" font-style="normal" font-weight="normal" text-decoration="none" x="565" y="729">conteggio riprende da 0 se viene</text><text fill="#000000" stroke="none" font-family="Arial" font-size="13px" font-style="normal" font-weight="normal" text-decoration="none" x="565" y="742">rilevata nuovamente la presenza</text><text fill="#000000" stroke="none" font-family="Arial" font-size="13px" font-style="normal" font-weight="normal" text-decoration="none" x="565" y="755">di qualcuno.</text></g></g><g transform="translate(-22,-54) scale(1,1)"><path fill="#ffffff" stroke="none" d="M 640 816 L 757 816 L 767 826 L 767 865 L 640 865 L 640 816"/></g><g transform="translate(-22,-54) scale(1,1)"><path fill="none" stroke="#000000" d="M 640 816 L 757 816 L 767 826 L 767 865 L 640 865 L 640 816 L 640 816" stroke-miterlimit="10"/></g><g transform="translate(-22,-54) scale(1,1)"><path fill="none" stroke="#000000" d="M 757 816 L 757 826 L 767 826 L 757 816" stroke-miterlimit="10"/></g><g transform="translate(-22,-54) scale(1,1)"><g><path fill="none" stroke="none"/><text fill="#000000" stroke="none" font-family="Arial" font-size="13px" font-style="normal" font-weight="normal" text-decoration="none" x="645" y="834">P9 - in pin =&gt; PIR</text><text fill="#000000" stroke="none" font-family="Arial" font-size="13px" font-style="normal" font-weight="normal" text-decoration="none" x="645" y="847">P4 - out pin =&gt; LED</text></g></g></g></svg>